<?xml version="1.0" encoding="UTF-8"?>
<svg width="161px" height="61px" viewBox="0 0 161 61" version="1.1" xmlns="http://www.w3.org/2000/svg" xmlns:xlink="http://www.w3.org/1999/xlink">
    <!-- Generator: Sketch 53.2 (72643) - https://sketchapp.com -->
    <title>Group 6</title>
    <desc>Created with Sketch.</desc>
    <g id="Page-1" stroke="none" stroke-width="1" fill="none" fill-rule="evenodd">
        <g id="checkout-voucher" transform="translate(-98.000000, -710.000000)">
            <g id="Group-6" transform="translate(98.000000, 710.000000)">
                <g id="Group-8-Copy" transform="translate(100.000000, 0.000000)">
                    <polygon id="Fill-1" fill="#016FD0" points="0 60.6633204 60.6633204 60.6633204 60.6633204 0 0 0"></polygon>
                    <polygon id="Fill-2" fill="#FFFFFF" points="21.9754691 51.0643133 45.9622867 51.1152028 49.729458 46.9126061 53.5235906 51.099363 60.6632867 51.099363 60.6632867 44.9673464 56.1914138 40.1453133 60.6632867 35.3667552 60.6632867 29.362468 21.9754691 29.3277552"></polygon>
                    <polygon id="Fill-3" fill="#016FD0" points="24.5595773 48.681168 24.5595773 31.7197978 38.9410856 31.7197978 38.9410856 35.627168 29.2157983 35.627168 29.2157983 38.2794884 38.7095552 38.2794884 38.7095552 42.1218144 29.2157983 42.1218144 29.2157983 44.7272895 38.9410856 44.7272895 38.9410856 48.681168"></polygon>
                    <polygon id="Fill-4" fill="#016FD0" points="54.7683613 31.7201011 49.8917315 37.0958525 45.0289193 31.7201011 38.8696044 31.7201011 46.8275768 40.1906757 38.8696044 48.6811343 44.8617591 48.6811343 49.759958 43.2514602 54.7090464 48.6811343 60.6634552 48.6811343 60.6634552 48.4405044 52.8746652 40.1906757 60.6634552 31.8535597 60.6634552 31.7201011"></polygon>
                    <polygon id="Fill-5" fill="#FFFFFF" points="23.7799232 10.0345337 33.1055088 10.0345337 36.3809729 17.4721525 36.3809729 10.0345337 47.8941331 10.0345337 49.8794978 15.6067657 51.8716028 10.0345337 60.6630171 10.0345337 60.6630171 31.7710917 14.2019122 31.7710917"></polygon>
                    <path d="M26.1923552,22.1462017 L28.4493552,16.7512403 L30.7046702,22.1462017 L26.1923552,22.1462017 Z M25.5456204,12.3959751 L18.0197033,29.3428536 L23.1814492,29.3428536 L24.6013,25.9494337 L32.2947144,25.9494337 L33.7135541,29.3428536 L39.0037033,29.3428536 L31.5091287,12.3959751 L25.5456204,12.3959751 Z" id="Fill-6" fill="#016FD0"></path>
                    <polygon id="Fill-7" fill="#016FD0" points="38.9329972 29.3402249 38.9329972 12.3930094 46.1889641 12.4182856 49.9220967 22.836816 53.6801685 12.3933464 60.6631519 12.3933464 60.6631519 29.3402249 56.1697099 29.3799928 56.1697099 17.7387663 51.9280193 29.3402249 47.8265276 29.3402249 43.4968757 17.6993354 43.4968757 29.3402249"></polygon>
                </g>
                <g id="Group-5">
                    <path d="M22.8986916,0.24796748 L14.7887383,19.8373984 L9.77964955,19.8373984 L5.72467291,3.96747967 C5.48614487,3.22357724 5.48614487,2.72764228 4.77056076,2.4796748 C3.57792057,1.73577236 1.66969627,1.2398374 0,0.743902439 L0,0.24796748 L8.34848133,0.24796748 C9.30259348,0.24796748 10.2567056,0.991869919 10.4952337,2.23170732 L12.641986,13.6382114 L17.6510748,0.24796748 L22.8986916,0.24796748 Z M42.9350468,13.3902439 C42.9350468,8.18292683 36.0177337,7.93495935 36.0177337,5.70325203 C36.0177337,4.95934959 36.7333178,4.21544715 38.1644861,3.96747967 C38.8800702,3.96747967 40.7882945,3.7195122 42.9350468,4.95934959 L43.889159,0.743902439 C42.6965188,0.24796748 41.2653506,0 39.3571262,0 C34.5865655,0 31.247173,2.72764228 31.0086449,6.44715447 C31.0086449,9.17479675 33.3939253,10.9105691 35.3021496,11.902439 C37.2103739,12.8943089 37.925958,13.3902439 37.925958,14.3821138 C37.925958,15.6219512 36.4947898,16.3658537 35.0636216,16.3658537 C32.6783412,16.3658537 31.247173,15.6219512 30.0545328,15.1260163 L29.1004206,19.3414634 C30.2930608,19.8373984 32.4398132,20.3333333 34.5865655,20.3333333 C39.5956543,20.0853659 42.9350468,17.3577236 42.9350468,13.3902439 L42.9350468,13.3902439 Z M55.8155609,19.8373984 L60.3475936,19.8373984 L56.2926169,0.24796748 L52.2376403,0.24796748 C51.2835281,0.24796748 50.567944,0.743902439 50.090888,1.73577236 L42.6965188,19.8373984 L47.9441356,19.8373984 L48.8982478,16.8617886 L55.0999767,16.8617886 L55.8155609,19.8373984 Z M50.329416,12.8943089 L52.9532244,5.45528455 L54.3843926,12.8943089 L50.329416,12.8943089 Z M29.8160047,0.24796748 L25.7610281,19.8373984 L20.9904673,19.8373984 L25.045444,0.24796748 L29.8160047,0.24796748 Z" id="Shape" fill="#1A1F71" fill-rule="nonzero"></path>
                    <g id="mastercard-icon" transform="translate(6.705288, 27.111111)">
                        <path d="M26.8211527,27.7465278 C29.6105526,30.2881944 33.4727986,31.9826389 37.5496138,31.9826389 C46.3469519,31.9826389 53.6423054,24.78125 53.6423054,16.0972222 C53.6423054,7.20138889 46.5615211,0 37.5496138,0 C33.4727986,0 29.6105526,1.48263889 26.8211527,4.02430556 C23.6026144,6.98958333 21.4569222,11.2256944 21.4569222,15.8854167 C21.4569222,20.5451389 23.6026144,24.78125 26.8211527,27.7465278 L26.8211527,27.7465278 Z" id="Path" fill="#FCB131"></path>
                        <path d="M51.4966132,25.3258929 C51.4966132,24.8417659 51.9755623,24.3576389 52.4545115,24.3576389 C52.9334607,24.3576389 53.4124098,24.8417659 53.4124098,25.3258929 C53.4124098,25.8100198 52.9334607,26.2941468 52.4545115,26.2941468 C51.9755623,26.7782738 51.4966132,26.2941468 51.4966132,25.3258929 L51.4966132,25.3258929 Z M52.4545115,26.2941468 C52.9334607,26.2941468 53.4124098,25.8100198 53.4124098,25.3258929 C53.4124098,24.8417659 52.9334607,24.3576389 52.4545115,24.3576389 C51.9755623,24.3576389 51.4966132,24.8417659 51.4966132,25.3258929 C51.9755623,25.8100198 51.9755623,26.2941468 52.4545115,26.2941468 L52.4545115,26.2941468 Z M52.4545115,25.8100198 L52.4545115,25.8100198 L51.9755623,24.8417659 L52.4545115,24.8417659 C52.4545115,24.8417659 52.4545115,24.8417659 52.9334607,24.8417659 C52.9334607,24.8417659 52.9334607,24.8417659 52.9334607,25.3258929 C52.9334607,25.3258929 52.9334607,25.8100198 52.9334607,25.8100198 L53.4124098,26.2941468 L52.4545115,26.2941468 L52.4545115,25.8100198 L52.4545115,25.8100198 L52.4545115,25.8100198 L52.4545115,25.3258929 L52.4545115,25.3258929 C52.4545115,25.3258929 52.4545115,25.3258929 52.4545115,25.3258929 C52.4545115,25.3258929 52.4545115,25.3258929 52.4545115,25.3258929 C52.4545115,25.3258929 52.4545115,25.3258929 52.4545115,25.3258929 C52.4545115,25.3258929 52.4545115,25.3258929 52.4545115,25.3258929 L52.4545115,25.3258929 L52.4545115,25.8100198 L52.4545115,25.8100198 L52.4545115,25.8100198 Z" id="Shape" fill="#FCB131"></path>
                        <path d="M31.970814,14.1909722 C31.970814,13.5555556 31.7562448,13.1319444 31.7562448,12.4965278 L21.8860606,12.4965278 C22.1006298,11.8611111 22.1006298,11.4375 22.315199,10.8020833 L31.1125371,10.8020833 C30.8979679,10.1666667 30.6833987,9.74305556 30.4688295,9.10763889 L22.9589067,9.10763889 C23.1734759,8.47222222 23.6026144,8.04861111 23.8171836,7.41319444 L29.3959834,7.41319444 C28.9668449,6.77777778 28.5377065,6.35416667 28.108568,5.71875 L24.8900297,5.71875 C25.3191682,5.08333333 25.9628758,4.44791667 26.6065835,4.02430556 C24.0317528,1.48263889 20.1695068,0 16.0926916,0 C7.29535354,0 0,7.20138889 0,15.8854167 C0,24.5694444 7.29535354,31.7708333 16.0926916,31.7708333 C20.1695068,31.7708333 24.0317528,30.2881944 26.8211527,27.5347222 L26.8211527,27.5347222 L26.8211527,27.5347222 C27.4648604,27.1111111 27.8939988,26.4756944 28.3231373,25.8402778 L25.1045989,25.8402778 C24.6754605,25.2048611 24.246322,24.78125 23.8171836,24.1458333 L29.3959834,24.1458333 C29.8251218,23.5104167 30.039691,23.0868056 30.2542602,22.4513889 L22.7443375,22.4513889 C22.5297683,21.8159722 22.315199,21.3923611 22.1006298,20.7569444 L30.8979679,20.7569444 C31.1125371,20.1215278 31.3271064,19.6979167 31.3271064,19.0625 C31.5416756,18.4270833 31.5416756,18.0034722 31.5416756,17.3680556 C31.5416756,16.7326389 31.5416756,16.3090278 31.5416756,15.6736111 C32.1853832,15.4618056 31.970814,14.8263889 31.970814,14.1909722 L31.970814,14.1909722 Z" id="Path" fill="#ED1C2E"></path>
                        <path d="M51.4966132,20.514881 C51.4966132,19.546627 51.9755623,19.0625 52.4545115,19.0625 C52.9334607,19.0625 53.4124098,19.546627 53.4124098,20.030754 C53.4124098,20.514881 52.9334607,20.9990079 52.4545115,20.9990079 C51.9755623,21.4831349 51.4966132,20.9990079 51.4966132,20.514881 L51.4966132,20.514881 Z M52.4545115,21.4831349 C52.9334607,21.4831349 53.4124098,20.9990079 53.4124098,20.514881 C53.4124098,20.030754 52.9334607,19.546627 52.4545115,19.546627 C51.9755623,19.546627 51.4966132,20.030754 51.4966132,20.514881 C51.9755623,20.9990079 51.9755623,21.4831349 52.4545115,21.4831349 L52.4545115,21.4831349 Z M52.4545115,20.9990079 L52.4545115,20.9990079 L51.9755623,20.030754 L52.4545115,20.030754 C52.4545115,20.030754 52.4545115,20.030754 52.9334607,20.030754 C52.9334607,20.030754 52.9334607,20.030754 52.9334607,20.514881 C52.9334607,20.030754 52.9334607,20.514881 52.4545115,20.9990079 L52.9334607,20.9990079 L52.4545115,20.9990079 L52.4545115,20.9990079 L52.4545115,20.9990079 L52.4545115,20.9990079 L52.4545115,20.514881 L52.4545115,20.514881 C52.4545115,20.514881 52.4545115,20.514881 52.4545115,20.514881 C52.4545115,20.514881 52.4545115,20.514881 52.4545115,20.514881 C52.4545115,20.514881 52.4545115,20.514881 52.4545115,20.514881 C52.4545115,20.514881 52.4545115,20.514881 52.4545115,20.514881 L52.4545115,20.514881 L52.4545115,20.9990079 L52.4545115,20.9990079 L52.4545115,20.9990079 Z" id="Shape" fill="#FFFFFF"></path>
                        <path d="M21.4569222,20.5451389 C20.8132145,20.7569444 20.3840761,20.7569444 20.1695068,20.7569444 C19.3112299,20.7569444 18.6675223,20.3333333 18.6675223,19.2743056 C18.6675223,19.0625 18.6675223,18.8506944 18.6675223,18.6388889 L18.8820915,18.0034722 L18.8820915,17.5798611 L19.5257992,13.1319444 L21.4569222,13.1319444 L21.2423529,13.9791667 L22.315199,13.9791667 L22.1006298,15.6736111 L21.0277837,15.6736111 L20.5986453,18.4270833 C20.5986453,18.6388889 20.5986453,18.6388889 20.5986453,18.6388889 C20.3840761,19.0625 20.5986453,19.0625 21.0277837,19.0625 C21.2423529,19.0625 21.4569222,19.0625 21.4569222,19.0625 L21.4569222,20.5451389 L21.4569222,20.5451389 Z" id="Path" fill="#003473"></path>
                        <path d="M28.0012834,20.5451389 C27.1966488,20.7569444 26.6602258,20.7569444 25.8555912,20.7569444 C23.4416875,20.7569444 22.1006298,19.6979167 22.1006298,17.7916667 C22.1006298,15.4618056 23.709899,13.9791667 25.8555912,13.9791667 C27.7330719,13.9791667 28.805918,14.8263889 28.805918,16.3090278 C28.805918,16.7326389 28.805918,17.3680556 28.5377065,18.0034722 L24.246322,18.0034722 C24.246322,18.2152778 24.246322,18.2152778 24.246322,18.2152778 C24.246322,19.0625 24.7827451,19.2743056 26.1238027,19.2743056 C26.9284373,19.2743056 27.7330719,19.0625 28.2694949,18.8506944 L28.0012834,20.5451389 L28.0012834,20.5451389 Z M26.6602258,16.5208333 C26.6602258,16.3090278 26.6602258,16.3090278 26.6602258,16.0972222 C26.6602258,15.4618056 26.3920143,15.25 25.5873797,15.25 C24.7827451,15.25 24.5145336,15.6736111 24.246322,16.5208333 L26.6602258,16.5208333 L26.6602258,16.5208333 Z" id="Shape" fill="#003473"></path>
                        <polygon id="Path" fill="#003473" points="8.15363042 20.5451389 6.43707665 20.5451389 7.29535354 14.4027778 5.14966132 20.5451389 3.86224599 20.5451389 3.86224599 14.4027778 2.78939988 20.5451389 1.07284611 20.5451389 2.36026144 12.4965278 4.9350921 12.4965278 4.9350921 17.5798611 6.65164587 12.4965278 9.44104575 12.4965278"></polygon>
                        <path d="M12.9236693,17.7916667 C12.6657736,17.7916667 12.6657736,17.7916667 12.4078779,17.7916667 C11.1183994,17.7916667 10.602608,18.2152778 10.602608,18.8506944 C10.8605037,19.0625 11.1183994,19.2743056 11.6341908,19.2743056 C12.4078779,19.2743056 12.9236693,18.6388889 12.9236693,17.7916667 L12.9236693,17.7916667 Z M14.7289392,20.5451389 L12.9236693,20.5451389 L12.9236693,19.9097222 C12.4078779,20.5451389 11.6341908,20.7569444 10.602608,20.7569444 C9.57102518,20.7569444 8.79733809,20.1215278 8.79733809,18.8506944 C8.79733809,18.6388889 8.79733809,18.2152778 9.05523379,18.0034722 C9.31312948,16.9444444 10.602608,16.3090278 12.4078779,16.3090278 C12.6657736,16.3090278 12.9236693,16.3090278 13.4394607,16.3090278 C13.4394607,16.0972222 13.4394607,16.0972222 13.4394607,15.8854167 C13.4394607,15.4618056 12.9236693,15.25 12.1499822,15.25 C11.6341908,15.25 10.8605037,15.25 10.3447123,15.4618056 L10.0868166,15.4618056 L9.82892088,15.4618056 L10.0868166,13.9791667 C11.1183994,13.9791667 11.8920865,13.9791667 12.6657736,13.9791667 C14.4710435,13.9791667 15.5026263,14.6145833 15.5026263,15.8854167 C15.5026263,16.3090278 15.5026263,16.5208333 15.5026263,17.15625 L14.7289392,19.4861111 L14.7289392,19.9097222 L14.7289392,20.3333333 L14.7289392,20.5451389 L14.7289392,20.5451389 L14.7289392,20.5451389 Z" id="Shape" fill="#003473"></path>
                        <path d="M35.1893523,14.1909722 C35.6184908,14.1909722 36.0476292,14.4027778 36.6913369,14.6145833 L36.9059061,12.7083333 C36.9059061,12.7083333 36.6913369,12.7083333 36.4767677,12.7083333 L35.83306,12.4965278 C35.6184908,12.4965278 35.4039216,12.4965278 34.9747831,12.4965278 C34.1165062,12.4965278 33.6873678,12.4965278 33.0436601,12.9201389 C32.8290909,13.1319444 32.3999525,13.34375 31.970814,13.7673611 L31.7562448,13.7673611 L30.039691,14.8263889 L30.039691,14.1909722 L28.108568,14.1909722 L27.0357219,20.7569444 L28.7522757,20.7569444 L29.3959834,17.15625 C29.3959834,17.15625 29.6105526,16.7326389 29.8251218,16.5208333 C30.2542602,16.0972222 30.4688295,16.0972222 30.8979679,16.0972222 C30.8979679,16.0972222 31.1125371,16.0972222 31.1125371,16.0972222 C31.1125371,16.5208333 31.1125371,16.9444444 31.1125371,17.3680556 C31.1125371,19.4861111 32.3999525,20.7569444 34.1165062,20.7569444 C34.5456447,20.7569444 34.9747831,20.7569444 35.6184908,20.5451389 L35.83306,18.6388889 C35.4039216,19.0625 34.9747831,19.0625 34.5456447,19.0625 C33.4727986,19.0625 32.8290909,18.2152778 32.8290909,17.15625 C32.8290909,15.4618056 33.901937,14.1909722 35.1893523,14.1909722 L35.1893523,14.1909722 Z" id="Path" fill="#003473"></path>
                        <path d="M49.7800594,12.4965278 L49.350921,14.8263889 C48.9217825,14.1909722 48.4926441,13.9791667 47.8489364,13.9791667 C46.9906595,13.9791667 46.1323827,14.4027778 45.488675,15.4618056 L45.488675,15.4618056 L44.4158289,14.8263889 L44.6303981,14.1909722 L42.6992751,14.1909722 L41.626429,20.7569444 L43.3429828,20.7569444 L43.9866904,17.15625 C43.9866904,17.15625 44.4158289,16.7326389 44.6303981,16.5208333 C44.8449673,16.0972222 45.2741058,16.0972222 45.488675,16.0972222 C45.0595365,16.5208333 45.0595365,17.15625 45.0595365,18.0034722 C45.0595365,19.6979167 45.9178134,20.7569444 47.2052288,20.7569444 C47.8489364,20.7569444 48.2780749,20.5451389 48.9217825,20.1215278 L48.9217825,20.7569444 L50.6383363,20.7569444 L51.9257516,12.7083333 L49.7800594,12.7083333 L49.7800594,12.4965278 Z M47.6343672,19.0625 C46.9906595,19.0625 46.7760903,18.6388889 46.7760903,17.7916667 C46.7760903,16.5208333 47.419798,15.6736111 48.0635056,15.6736111 C48.7072133,15.6736111 48.9217825,16.0972222 48.9217825,16.9444444 C49.1363518,18.2152778 48.4926441,19.0625 47.6343672,19.0625 L47.6343672,19.0625 Z" id="Shape" fill="#003473"></path>
                        <path d="M40.7972084,17.7916667 C40.5178214,17.7916667 40.5178214,17.7916667 40.2384343,17.7916667 C38.8414993,17.7916667 38.2827253,18.2152778 38.2827253,18.8506944 C38.2827253,19.2743056 38.5621123,19.4861111 39.1208863,19.4861111 C40.2384343,19.2743056 40.7972084,18.6388889 40.7972084,17.7916667 L40.7972084,17.7916667 Z M42.4735304,20.5451389 L40.5178214,20.5451389 L40.5178214,19.9097222 C39.9590473,20.3333333 39.4002733,20.7569444 38.0033383,20.7569444 C36.8857903,20.7569444 36.0476292,20.1215278 36.0476292,18.8506944 C36.0476292,17.3680556 37.7239513,16.3090278 39.9590473,16.3090278 C40.2384343,16.3090278 40.5178214,16.3090278 41.0765954,16.3090278 C41.0765954,16.0972222 41.0765954,16.0972222 41.0765954,15.8854167 C41.0765954,15.4618056 40.5178214,15.25 39.4002733,15.25 C38.8414993,15.25 38.0033383,15.25 37.4445643,15.4618056 L37.1651773,15.4618056 L36.8857903,15.4618056 L37.1651773,13.9791667 C38.2827253,13.7673611 38.8414993,13.5555556 39.6796603,13.5555556 C41.6353694,13.5555556 42.7529174,14.1909722 42.7529174,15.4618056 C42.7529174,15.8854167 42.7529174,16.0972222 42.7529174,16.7326389 L42.1941434,19.0625 L42.1941434,19.4861111 L42.1941434,19.9097222 L42.4735304,20.5451389 L42.4735304,20.5451389 L42.4735304,20.5451389 Z" id="Shape" fill="#003473"></path>
                        <path d="M17.1655377,15.4618056 C17.5946762,15.4618056 18.0238146,15.4618056 18.4529531,15.6736111 L18.6675223,14.1909722 C18.2383838,13.9791667 17.5946762,13.9791667 17.1655377,13.9791667 C15.2344147,13.9791667 14.5907071,15.0381944 14.5907071,16.3090278 C14.5907071,16.9444444 15.0198455,17.5798611 16.0926916,18.0034722 C16.7363993,18.4270833 16.9509685,18.4270833 16.9509685,18.6388889 C16.9509685,19.0625 16.5218301,19.2743056 15.8781224,19.2743056 C15.448984,19.2743056 14.8052763,19.2743056 14.3761378,19.0625 L13.9469994,20.5451389 L13.9469994,20.5451389 L14.3761378,20.5451389 C14.5907071,20.5451389 14.5907071,20.5451389 14.8052763,20.5451389 C15.2344147,20.5451389 15.6635532,20.5451389 15.8781224,20.5451389 C17.8092454,20.5451389 18.6675223,19.9097222 18.6675223,18.4270833 C18.6675223,17.5798611 18.2383838,16.9444444 17.380107,16.5208333 C16.5218301,16.3090278 16.3072608,16.3090278 16.3072608,16.0972222 C16.3072608,15.6736111 16.7363993,15.4618056 17.1655377,15.4618056 L17.1655377,15.4618056 Z" id="Path" fill="#003473"></path>
                        <path d="M37.5496138,12.2847222 L37.3350446,13.9791667 C36.6913369,13.7673611 36.2621985,13.5555556 35.83306,13.5555556 C34.5456447,13.5555556 33.6873678,14.8263889 33.6873678,16.5208333 C33.6873678,17.7916667 34.3310755,18.4270833 35.4039216,18.4270833 C35.83306,18.4270833 36.2621985,18.2152778 36.9059061,18.0034722 L36.6913369,19.9097222 C36.0476292,20.1215278 35.6184908,20.1215278 35.1893523,20.1215278 C33.2582294,20.1215278 32.1853832,18.8506944 32.1853832,16.5208333 C32.1853832,13.5555556 33.6873678,11.6493056 36.0476292,11.6493056 C36.2621985,11.6493056 36.6913369,11.6493056 36.9059061,11.6493056 L37.5496138,11.8611111 C37.3350446,12.2847222 37.3350446,12.2847222 37.5496138,12.2847222 L37.5496138,12.2847222 Z" id="Path" fill="#FFFFFF"></path>
                        <path d="M31.7562448,13.5555556 C31.7562448,13.5555556 31.7562448,13.5555556 31.7562448,13.5555556 C30.8979679,13.5555556 30.6833987,13.7673611 30.2542602,14.6145833 L30.4688295,13.5555556 L28.9668449,13.5555556 L27.8939988,20.1215278 L29.6105526,20.1215278 C30.2542602,16.0972222 30.4688295,15.4618056 31.3271064,15.4618056 C31.3271064,15.4618056 31.3271064,15.4618056 31.5416756,15.4618056 C31.3271064,14.6145833 31.5416756,13.9791667 31.7562448,13.5555556 L31.7562448,13.5555556 L31.7562448,13.5555556 Z" id="Path" fill="#FFFFFF"></path>
                        <path d="M21.8860606,20.1215278 C21.2423529,20.1215278 21.0277837,20.3333333 20.5986453,20.3333333 C19.7403684,20.3333333 19.3112299,19.9097222 19.3112299,18.8506944 C19.3112299,18.6388889 19.3112299,18.4270833 19.3112299,18.2152778 L19.3112299,17.5798611 L19.3112299,17.15625 L19.9549376,12.7083333 L21.6714914,12.7083333 L21.4569222,13.7673611 L22.315199,13.7673611 L22.1006298,15.4618056 L21.4569222,15.4618056 L21.0277837,17.7916667 C21.0277837,18.0034722 21.0277837,18.0034722 21.0277837,18.0034722 C21.0277837,18.4270833 21.2423529,18.4270833 21.6714914,18.4270833 C21.8860606,18.4270833 22.1006298,18.4270833 22.1006298,18.4270833 L21.8860606,20.1215278 L21.8860606,20.1215278 Z" id="Path" fill="#FFFFFF"></path>
                        <path d="M15.2344147,15.6736111 C15.2344147,16.5208333 15.6635532,17.15625 16.5218301,17.5798611 C17.1655377,17.7916667 17.1655377,17.7916667 17.1655377,18.2152778 C17.1655377,18.6388889 16.9509685,18.8506944 16.0926916,18.8506944 C15.6635532,18.8506944 15.0198455,18.8506944 14.5907071,18.6388889 L14.3761378,20.1215278 L14.3761378,20.1215278 L14.5907071,20.1215278 C14.8052763,20.1215278 14.8052763,20.1215278 15.0198455,20.1215278 C15.448984,20.1215278 15.6635532,20.1215278 15.8781224,20.1215278 C17.8092454,20.1215278 18.6675223,19.4861111 18.6675223,18.0034722 C18.6675223,17.15625 18.2383838,16.5208333 17.380107,16.0972222 C16.9509685,15.8854167 16.9509685,15.8854167 16.9509685,15.4618056 C16.9509685,15.0381944 17.1655377,15.0381944 17.8092454,15.0381944 C18.2383838,15.0381944 18.6675223,15.0381944 19.0966607,15.0381944 L19.3112299,13.5555556 C18.8820915,13.5555556 18.2383838,13.34375 17.8092454,13.34375 C15.8781224,13.34375 15.0198455,14.4027778 15.2344147,15.6736111 L15.2344147,15.6736111 Z" id="Path" fill="#FFFFFF"></path>
                        <path d="M50.6833266,20.1215278 L48.9529297,20.1215278 L48.9529297,19.4861111 C48.5203304,19.9097222 47.8714316,20.1215278 47.2225327,20.1215278 C45.924735,20.1215278 45.0595365,19.0625 45.0595365,17.3680556 C45.0595365,15.25 46.3573343,13.34375 47.8714316,13.34375 C48.5203304,13.34375 49.1692293,13.5555556 49.6018285,14.1909722 L50.0344278,11.8611111 L51.7648247,11.8611111 L50.6833266,20.1215278 L50.6833266,20.1215278 Z M48.3040308,18.6388889 C49.1692293,18.6388889 49.6018285,17.7916667 49.6018285,16.5208333 C49.6018285,15.6736111 49.3855289,15.25 48.7366301,15.25 C47.8714316,15.25 47.4388323,16.0972222 47.4388323,17.3680556 C47.2225327,18.2152778 47.655132,18.6388889 48.3040308,18.6388889 L48.3040308,18.6388889 Z" id="Shape" fill="#FFFFFF"></path>
                        <path d="M28.2158526,19.9097222 C27.4112181,20.1215278 26.874795,20.1215278 26.0701604,20.1215278 C23.6562567,20.1215278 22.315199,19.0625 22.315199,17.15625 C22.315199,14.8263889 23.9244682,13.34375 26.0701604,13.34375 C27.9476411,13.34375 29.0204872,14.1909722 29.0204872,15.6736111 C29.0204872,16.0972222 29.0204872,16.7326389 28.7522757,17.3680556 L24.4608913,17.3680556 C24.4608913,17.3680556 24.4608913,17.5798611 24.4608913,17.5798611 C24.4608913,18.4270833 24.9973143,18.6388889 26.338372,18.6388889 C27.1430065,18.6388889 27.9476411,18.4270833 28.4840642,18.2152778 L28.2158526,19.9097222 L28.2158526,19.9097222 Z M27.1430065,16.0972222 C27.1430065,15.8854167 27.1430065,15.8854167 27.1430065,15.6736111 C27.1430065,15.0381944 26.874795,14.8263889 26.0701604,14.8263889 C25.2655258,14.8263889 24.9973143,15.25 24.7291028,16.0972222 L27.1430065,16.0972222 L27.1430065,16.0972222 Z" id="Shape" fill="#FFFFFF"></path>
                        <polygon id="Path" fill="#FFFFFF" points="8.58276887 20.1215278 6.86621509 20.1215278 7.72449198 13.9791667 5.57879976 20.1215278 4.29138443 20.1215278 4.29138443 13.9791667 3.21853832 20.1215278 1.50198455 20.1215278 3.0039691 12.0729167 5.36423054 12.0729167 5.57879976 16.9444444 7.08078431 12.0729167 9.87018419 12.0729167"></polygon>
                        <path d="M13.7324302,17.15625 C13.4642187,17.15625 13.4642187,17.15625 13.1960071,17.15625 C11.8549495,17.15625 11.3185264,17.5798611 11.3185264,18.2152778 C11.3185264,18.6388889 11.586738,18.8506944 12.123161,18.8506944 C12.9277956,18.8506944 13.7324302,18.2152778 13.7324302,17.15625 L13.7324302,17.15625 Z M15.3416993,20.1215278 L13.4642187,20.1215278 L13.4642187,19.4861111 C12.9277956,19.9097222 12.123161,20.1215278 11.3185264,20.1215278 C10.2456803,20.1215278 9.44104575,19.4861111 9.44104575,18.4270833 C9.44104575,16.7326389 10.7821034,15.8854167 13.1960071,15.8854167 C13.4642187,15.8854167 13.7324302,15.8854167 14.0006417,15.8854167 C14.0006417,15.6736111 14.0006417,15.6736111 14.0006417,15.4618056 C14.0006417,15.0381944 13.7324302,14.8263889 12.6595841,14.8263889 C12.123161,14.8263889 11.3185264,14.8263889 10.7821034,15.0381944 L10.5138919,15.0381944 L10.2456803,15.0381944 L10.5138919,13.5555556 C11.586738,13.34375 12.3913725,13.1319444 13.1960071,13.1319444 C15.0734878,13.1319444 16.1463339,13.7673611 16.1463339,15.0381944 C16.1463339,15.4618056 16.1463339,15.6736111 15.8781224,16.3090278 L15.3416993,19.0625 L15.3416993,19.4861111 L15.3416993,19.9097222 L15.3416993,20.1215278 L15.3416993,20.1215278 L15.3416993,20.1215278 Z" id="Shape" fill="#FFFFFF"></path>
                        <path d="M41.2509329,17.15625 C40.9827213,17.15625 40.9827213,17.15625 40.7145098,17.15625 C39.3734522,17.15625 38.8370291,17.5798611 38.8370291,18.2152778 C38.8370291,18.6388889 39.1052406,18.8506944 39.6416637,18.8506944 C40.4462983,18.8506944 40.9827213,18.2152778 41.2509329,17.15625 L41.2509329,17.15625 Z M42.860202,20.1215278 L40.9827213,20.1215278 L40.9827213,19.4861111 C40.4462983,20.1215278 39.6416637,20.3333333 38.5688176,20.3333333 C37.4959715,20.3333333 36.6913369,19.6979167 36.6913369,18.6388889 C36.6913369,16.9444444 38.0323945,16.0972222 40.4462983,16.0972222 C40.7145098,16.0972222 40.9827213,16.0972222 41.2509329,16.0972222 C41.2509329,15.8854167 41.2509329,15.8854167 41.2509329,15.6736111 C41.2509329,15.25 40.9827213,15.0381944 39.9098752,15.0381944 C39.3734522,15.0381944 38.5688176,15.0381944 38.0323945,15.25 L37.764183,15.25 L37.4959715,15.25 L37.764183,13.7673611 C38.8370291,13.5555556 39.6416637,13.34375 40.4462983,13.34375 C42.323779,13.34375 43.3966251,13.9791667 43.3966251,15.25 C43.3966251,15.6736111 43.3966251,15.8854167 43.1284135,16.5208333 L42.860202,19.0625 L42.860202,19.4861111 L42.860202,19.9097222 L42.860202,20.1215278 L42.860202,20.1215278 L42.860202,20.1215278 Z" id="Shape" fill="#FFFFFF"></path>
                        <path d="M46.1323827,13.5555556 C46.1323827,13.5555556 46.1323827,13.5555556 46.1323827,13.5555556 C45.488675,13.5555556 45.0595365,13.7673611 44.6303981,14.6145833 L44.8449673,13.5555556 L43.3429828,13.5555556 L42.2701367,20.1215278 L43.9866904,20.1215278 C44.6303981,16.0972222 44.8449673,15.4618056 45.7032442,15.4618056 C45.7032442,15.4618056 45.7032442,15.4618056 45.7032442,15.4618056 C45.7032442,14.6145833 45.9178134,13.9791667 46.1323827,13.5555556 L46.1323827,13.5555556 L46.1323827,13.5555556 Z" id="Path" fill="#FFFFFF"></path>
                    </g>
                </g>
            </g>
        </g>
    </g>
</svg>