<?xml version="1.0" standalone="no"?>
<!DOCTYPE svg PUBLIC "-//W3C//DTD SVG 20010904//EN"
 "http://www.w3.org/TR/2001/REC-SVG-20010904/DTD/svg10.dtd">
<svg version="1.0" xmlns="http://www.w3.org/2000/svg"
 width="512.000000pt" height="512.000000pt" viewBox="0 0 512.000000 512.000000"
 preserveAspectRatio="xMidYMid meet">
<metadata>
Created by potrace 1.14, written by Peter Selinger 2001-2017
</metadata>
<g transform="translate(0.000000,512.000000) scale(0.100000,-0.100000)"
fill="#000000" stroke="none">
<path d="M0 2560 l0 -2560 2560 0 2560 0 0 2560 0 2560 -2560 0 -2560 0 0
-2560z m2458 2401 c14 -8 61 -258 62 -323 0 -32 -4 -39 -24 -44 -37 -9 -64 4
-70 34 -3 15 -8 57 -12 95 -3 37 -10 69 -14 72 -4 3 -13 -23 -19 -57 -11 -65
-21 -78 -61 -78 -35 0 -45 9 -61 55 -35 100 -40 96 -33 -23 8 -124 5 -132 -48
-132 -16 0 -31 7 -37 18 -5 10 -11 92 -12 182 -2 149 -1 164 16 176 26 19 79
17 97 -3 18 -21 58 -110 58 -129 0 -20 18 -17 23 4 3 9 11 47 18 84 8 45 18
69 28 71 28 8 76 7 89 -2z m724 -112 c74 -27 88 -35 88 -53 0 -12 -6 -31 -14
-41 -14 -19 -15 -19 -77 2 -35 12 -65 21 -66 19 -2 -1 -6 -16 -9 -33 -6 -30
-4 -31 46 -48 56 -19 66 -31 56 -71 -6 -24 -10 -26 -44 -20 -92 17 -94 16
-110 -41 -13 -46 -18 -53 -40 -53 -28 0 -62 25 -62 46 0 26 79 296 91 310 17
21 44 17 141 -17z m-1229 -118 c41 -64 82 -131 93 -149 l19 -34 -24 -19 c-33
-27 -62 -24 -91 11 l-25 30 -42 -16 c-40 -16 -42 -19 -45 -62 -3 -43 -6 -47
-36 -56 -59 -16 -63 -4 -63 195 l0 174 28 22 c26 21 74 33 100 25 7 -2 46 -57
86 -121z m1560 -32 c40 -21 67 -52 67 -78 0 -42 -52 -325 -62 -338 -8 -10 -17
-10 -41 1 -29 11 -32 17 -37 65 -5 48 -8 54 -42 74 l-38 21 -30 -29 c-29 -28
-32 -29 -58 -14 -40 22 -41 61 -1 107 104 120 186 202 202 202 10 0 28 -5 40
-11z m-2001 -16 c9 -10 48 -80 88 -156 l72 -138 -28 -30 c-42 -44 -72 -39
-158 26 -40 30 -76 55 -80 55 -3 0 14 -39 39 -87 l46 -88 -26 -22 c-36 -32
-51 -29 -78 15 -36 57 -137 255 -137 268 0 17 58 64 80 64 9 0 52 -25 94 -56
43 -31 79 -54 82 -51 2 2 -14 38 -36 80 -22 42 -40 83 -40 91 0 9 12 22 28 30
35 19 36 19 54 -1z m2323 -208 c38 -37 37 -41 -61 -177 l-63 -87 51 -49 c52
-50 52 -50 35 -76 -10 -14 -24 -26 -33 -26 -20 0 -152 117 -159 142 -4 11 2
34 15 56 38 63 171 242 181 242 6 0 21 -11 34 -25z m-2715 -115 c28 -28 25
-36 -19 -64 -53 -34 -71 -62 -71 -111 0 -40 18 -78 50 -102 45 -36 144 11 120
57 -13 24 -28 25 -52 3 -25 -22 -52 -7 -56 32 -3 21 6 37 39 71 24 24 50 44
59 44 17 0 120 -119 120 -139 0 -45 -84 -146 -145 -175 -105 -50 -235 54 -235
188 0 76 60 174 124 202 41 17 43 17 66 -6z m952 -211 c21 -11 52 -32 70 -47
18 -15 45 -36 61 -45 15 -10 27 -26 27 -37 0 -10 5 -22 10 -25 6 -3 10 -17 10
-31 0 -15 6 -24 15 -24 16 0 16 -1 20 -38 1 -13 7 -28 14 -35 6 -6 11 -22 11
-35 0 -13 5 -33 11 -44 7 -13 8 -23 1 -30 -6 -6 -8 -25 -5 -43 3 -19 0 -35 -6
-39 -6 -4 -9 -17 -5 -30 3 -14 -1 -27 -10 -35 -19 -16 -21 -61 -3 -61 6 0 48
23 92 50 57 36 90 50 115 50 43 0 109 -32 210 -103 73 -51 75 -53 78 -98 3
-40 7 -48 35 -61 18 -9 48 -28 66 -44 29 -24 33 -32 28 -65 -5 -35 -3 -38 47
-71 51 -33 51 -33 176 -33 148 0 173 -10 267 -103 77 -76 150 -227 218 -452 9
-30 21 -65 26 -78 5 -13 9 -38 9 -56 0 -29 -4 -34 -37 -44 -86 -25 -351 -43
-485 -33 -92 7 -99 9 -150 48 -93 70 -74 67 -408 68 -168 1 -320 5 -339 10
-38 9 -102 68 -168 155 -23 30 -103 136 -179 235 -75 99 -143 195 -151 214
-13 30 -12 51 7 189 19 140 20 156 6 164 -9 5 -16 18 -16 28 0 10 -8 23 -17
29 -15 8 -21 2 -38 -32 -16 -33 -26 -42 -45 -42 -20 0 -26 6 -28 29 -2 16 1
49 7 73 9 34 8 63 -5 136 -9 53 -13 111 -9 137 15 107 110 241 205 290 84 43
189 46 262 9z m2126 -59 c12 -18 22 -42 22 -54 0 -22 -141 -269 -172 -301 -19
-20 -19 -20 -44 8 -28 33 -30 58 -8 92 15 23 14 26 -13 64 -31 45 -42 48 -77
26 -22 -14 -25 -14 -40 0 -66 67 -46 88 169 181 112 48 119 48 163 -16z
m-3295 -176 c70 -52 127 -100 127 -106 0 -20 -44 -88 -60 -93 -16 -5 -132 9
-177 21 -41 11 -24 -11 47 -61 38 -28 69 -56 70 -63 0 -25 -31 -72 -48 -72
-28 0 -256 178 -261 203 -4 27 26 85 49 92 16 5 147 -10 183 -21 34 -11 16 16
-35 51 -91 61 -91 61 -83 92 9 36 23 53 44 53 9 0 73 -43 144 -96z m3480 -132
c27 -30 106 -194 100 -209 -7 -19 -38 -34 -56 -28 -7 3 -27 33 -42 66 -30 61
-47 71 -69 37 -8 -13 -5 -28 12 -63 28 -59 28 -79 -3 -93 -30 -14 -42 -3 -69
57 -11 22 -24 41 -30 41 -6 0 -28 -11 -48 -25 -47 -32 -54 -31 -74 6 -26 51
-13 69 98 139 161 102 156 100 181 72z m-3722 -312 c163 -16 162 -16 156 -57
-8 -48 -23 -63 -63 -63 -29 0 -36 -5 -49 -36 -21 -50 -19 -64 11 -95 25 -26
26 -31 14 -58 -19 -47 -35 -56 -65 -37 -34 23 -214 196 -226 218 -11 21 2 81
26 116 19 26 41 27 196 12z m3902 -92 c8 -13 20 -43 27 -68 7 -25 19 -64 26
-88 19 -57 18 -61 -12 -72 -35 -14 -47 -2 -68 63 -23 74 -28 80 -50 64 -18
-13 -18 -15 0 -71 20 -63 13 -89 -24 -94 -23 -4 -37 17 -56 81 -13 45 -24 53
-49 34 -17 -12 -17 -16 2 -77 26 -83 26 -84 -6 -99 -36 -17 -45 -5 -78 103
-29 93 -34 131 -18 147 16 16 236 97 265 98 18 1 32 -7 41 -21z m-2908 -43
c18 -62 14 -91 -16 -100 -25 -8 -49 11 -49 39 0 33 33 116 45 116 3 0 12 -25
20 -55z m-1230 -305 c3 -10 -1 -33 -9 -49 -23 -43 -20 -113 4 -144 25 -32 79
-44 119 -27 51 21 70 112 25 118 -17 2 -23 -4 -27 -26 -7 -34 -30 -46 -59 -31
-18 10 -20 17 -13 77 8 72 19 102 38 102 44 -2 143 -31 154 -46 19 -25 17
-153 -3 -200 -22 -53 -71 -102 -114 -114 -73 -19 -163 21 -197 90 -40 77 -27
231 21 262 21 15 55 8 61 -12z m4253 -102 c4 -55 12 -50 -148 -77 l-95 -17 0
-73 c0 -59 -3 -76 -17 -85 -37 -23 -52 3 -66 113 -19 140 -19 139 134 167 65
12 135 22 154 21 34 -2 35 -3 38 -49z m-3999 -802 c56 -30 62 -63 59 -356 -3
-261 -3 -265 -24 -268 -12 -2 -35 9 -53 24 -57 47 -61 66 -61 257 0 128 -3
177 -12 185 -7 5 -50 12 -96 14 -97 6 -125 21 -159 87 -36 70 -33 71 154 71
123 0 171 -4 192 -14z m271 -115 c0 -118 8 -159 25 -131 11 18 63 11 85 -12
27 -30 26 -73 -5 -103 -28 -29 -42 -31 -72 -10 -30 21 -33 7 -33 -136 l0 -120
-66 3 -66 3 1 310 c0 171 1 313 1 318 0 4 29 7 65 7 l65 0 0 -129z m441 117
c0 -7 0 -105 0 -218 -2 -261 -5 -253 109 -260 59 -3 95 -11 116 -24 33 -20 64
-72 64 -106 0 -19 -8 -20 -178 -20 -256 0 -242 -21 -242 357 l0 283 65 0 c45
0 65 -4 66 -12z m499 -15 c4 -232 5 -238 20 -234 52 14 68 12 89 -10 28 -31
27 -74 -4 -104 -28 -29 -42 -31 -72 -10 -19 13 -22 13 -27 -2 -4 -10 -6 -69
-5 -133 l1 -115 -65 -3 -66 -3 -3 311 c-2 170 -1 315 0 320 2 6 33 10 68 10
63 0 64 0 64 -27z m668 -50 l3 -73 -216 0 -215 0 0 68 c0 38 3 72 7 76 4 3 99
5 212 4 l206 -3 3 -72z m212 -33 c0 -60 2 -110 5 -110 3 0 16 7 29 15 29 19
69 7 86 -26 17 -31 4 -86 -26 -105 -21 -15 -28 -15 -52 -3 -15 7 -30 15 -34
17 -4 2 -9 -45 -10 -105 l-3 -108 -53 -3 c-30 -2 -59 1 -66 7 -9 7 -12 76 -13
257 -1 136 1 253 4 261 4 9 25 13 69 13 l64 0 0 -110z m663 100 c4 0 7 -121 7
-270 0 -209 -3 -270 -12 -271 -7 0 -69 0 -137 0 -77 0 -130 -4 -138 -10 -16
-14 -19 -332 -3 -373 9 -25 12 -26 97 -26 71 0 95 -4 121 -20 38 -23 81 -105
64 -122 -6 -6 -79 -9 -178 -8 -256 2 -244 -19 -244 405 l0 305 145 0 146 0 -3
118 -3 117 -80 3 c-102 3 -117 6 -154 37 -30 26 -57 85 -48 108 4 10 187 13
420 7z m214 -240 c2 -193 5 -244 15 -241 7 2 25 6 40 8 59 11 93 -82 46 -127
-23 -21 -63 -27 -73 -10 -20 32 -25 -12 -27 -237 l-3 -248 -67 -3 -68 -3 0
549 c0 302 3 552 7 556 4 4 34 6 68 4 l60 -3 2 -245z m651 172 l3 -72 -198 2
-198 3 -3 59 c-2 32 -1 65 2 73 5 11 42 13 198 11 l193 -3 3 -73z m220 66 c9
-9 12 -82 12 -265 l0 -253 -23 -5 c-13 -4 -43 -5 -68 -3 l-44 3 -3 95 c-3 97
-12 124 -34 102 -18 -18 -36 -15 -63 13 -29 28 -32 70 -9 103 13 19 24 23 58
20 l41 -3 3 90 c1 50 4 96 7 103 6 16 107 16 123 0z m167 -258 l0 -265 -65 0
-65 0 -3 255 c-1 140 0 261 3 268 3 9 23 12 67 10 l63 -3 0 -265z m-2365 -16
c0 -104 0 -105 23 -102 20 3 22 10 27 74 3 42 12 80 22 97 18 26 86 53 100 39
4 -4 9 -52 10 -107 3 -97 4 -99 28 -105 24 -6 25 -9 25 -75 l0 -70 -210 0
-210 0 0 70 c0 66 1 69 25 75 23 5 25 11 31 75 6 79 17 106 51 122 27 14 60
21 71 16 4 -2 7 -51 7 -109z m1760 5 c4 -84 8 -104 20 -104 12 0 16 18 20 76
6 85 17 105 68 126 54 22 62 8 62 -108 0 -90 2 -99 19 -99 24 0 31 -19 31 -86
0 -47 -3 -54 -22 -59 -13 -3 -99 -4 -193 -3 l-170 3 -6 60 c-8 69 -5 81 22 88
15 4 19 14 19 44 0 68 12 112 37 137 23 23 54 36 78 31 6 -1 12 -48 15 -106z
m-1295 -469 l0 -165 -175 -3 c-96 -1 -179 -7 -184 -12 -6 -6 -5 -15 3 -24 9
-11 44 -15 146 -18 126 -3 135 -4 161 -28 30 -28 58 -86 49 -100 -4 -6 -91
-10 -208 -10 -221 0 -232 2 -262 60 -20 38 -22 270 -2 270 6 1 86 2 177 3 158
2 165 3 165 22 0 19 -8 20 -135 25 -84 3 -144 10 -158 18 -42 24 -77 104 -55
126 4 3 113 5 242 4 l236 -3 0 -165z m1903 -2 l2 -168 -220 0 -221 0 3 -22 c3
-23 6 -23 178 -28 198 -6 219 -12 247 -78 27 -64 25 -64 -232 -63 -259 2 -263
3 -296 74 -14 32 -19 66 -19 144 0 57 4 105 10 108 6 3 101 7 213 8 201 2 202
2 205 25 l3 22 -163 0 c-144 0 -167 2 -195 20 -46 28 -79 101 -56 123 4 4 126
6 272 5 l266 -3 3 -167z m-3797 48 c39 -17 80 -57 103 -103 20 -40 21 -139 2
-184 -17 -41 -71 -94 -109 -108 -37 -14 -347 -14 -384 0 -72 27 -123 110 -123
199 0 88 40 155 115 194 41 22 346 23 396 2z m999 -195 c0 -159 -3 -210 -12
-212 -7 -2 -137 -2 -288 1 l-275 5 0 145 c0 164 13 205 75 248 32 21 41 22
266 22 l234 0 0 -209z m244 -517 c9 -3 16 -15 16 -25 0 -15 -7 -19 -35 -19
-43 0 -45 -14 -6 -35 45 -23 61 -51 49 -86 -6 -16 -18 -34 -28 -39 -48 -26
-123 1 -113 40 4 16 11 19 27 14 57 -19 77 7 22 30 -32 13 -56 41 -56 64 0 5
9 21 21 36 20 26 65 35 103 20z m170 -10 c3 -9 6 -56 6 -105 l0 -90 -27 3
c-28 3 -28 3 -31 92 -2 49 -1 95 2 103 7 18 43 16 50 -3z m187 -29 c22 -51 38
-66 31 -30 -7 39 6 75 27 75 26 0 31 -19 31 -115 0 -63 -4 -86 -16 -96 -22
-18 -45 -2 -69 49 -11 23 -23 42 -27 42 -5 0 -8 -20 -8 -45 0 -41 -2 -45 -25
-45 -25 0 -25 0 -25 98 0 54 3 102 7 105 3 4 17 7 30 7 19 0 28 -10 44 -45z
m327 13 c3 -26 1 -27 -27 -22 -40 8 -61 -10 -61 -52 0 -43 24 -67 60 -59 34 7
47 -16 23 -41 -12 -12 -27 -15 -56 -11 -56 8 -79 35 -85 99 -4 48 -1 58 23 86
25 30 32 33 74 30 42 -3 46 -5 49 -30z m230 5 c3 -19 -2 -22 -34 -25 -48 -4
-57 -26 -12 -30 25 -2 33 -8 33 -23 0 -15 -8 -21 -32 -23 -47 -5 -43 -30 5
-34 30 -2 38 -7 40 -25 3 -21 -1 -23 -40 -24 -48 -1 -81 1 -87 6 -5 6 -1 187
5 197 3 5 31 8 62 6 50 -3 57 -6 60 -25z m-1294 -199 c9 -8 16 -22 16 -29 0
-14 -26 -45 -37 -45 -12 0 -43 33 -43 46 0 14 27 44 40 44 5 0 16 -7 24 -16z
m1544 4 c30 -30 -2 -93 -36 -71 -21 13 -27 50 -12 69 15 17 32 18 48 2z
m-1000 -104 c30 -21 28 -59 -5 -98 l-26 -31 26 -3 c19 -2 27 -9 27 -23 0 -18
-6 -20 -57 -17 -49 3 -58 6 -61 23 -2 13 11 33 33 55 43 42 45 60 5 60 -31 0
-39 17 -18 38 17 17 49 15 76 -4z m196 -17 c14 -17 17 -33 14 -74 -6 -65 -20
-83 -68 -83 -29 0 -41 6 -54 25 -18 28 -21 97 -5 126 22 42 79 45 113 6z m163
11 c21 -17 15 -61 -13 -93 l-26 -30 26 -3 c18 -2 26 -9 26 -23 0 -18 -6 -20
-57 -17 -72 4 -79 22 -29 74 42 43 46 64 12 64 -33 0 -44 20 -20 37 20 14 58
10 81 -9z m170 7 c35 -25 48 -83 29 -128 -36 -88 -136 -56 -136 43 0 39 24 87
47 93 32 8 38 7 60 -8z"/>
<path d="M1830 4684 c0 -47 3 -55 16 -50 9 3 20 6 25 6 15 0 10 27 -12 64 -12
20 -23 36 -25 36 -2 0 -4 -25 -4 -56z"/>
<path d="M3446 4559 c-30 -35 -33 -54 -10 -63 27 -10 32 -7 38 30 4 19 10 42
13 50 9 25 -14 15 -41 -17z"/>
<path d="M1988 4050 c-37 -11 -86 -42 -92 -57 -3 -7 2 -26 12 -43 16 -28 16
-30 -3 -48 -11 -11 -53 -29 -93 -41 -90 -27 -112 -47 -113 -103 -1 -24 0 -47
2 -53 1 -5 3 -23 2 -40 0 -16 7 -35 15 -41 9 -6 13 -18 9 -28 -4 -10 1 -23 13
-33 11 -10 20 -25 20 -35 0 -10 6 -18 14 -18 7 0 21 -11 30 -25 9 -14 21 -23
26 -20 5 3 15 -3 22 -15 7 -11 23 -20 35 -20 12 0 25 -5 29 -11 3 -6 17 -8 29
-5 13 3 27 2 30 -4 10 -17 35 -11 35 8 0 10 -7 27 -15 39 -32 45 -46 104 -34
140 14 42 53 73 94 73 32 0 136 -60 165 -95 19 -23 40 -18 40 9 0 13 7 29 15
36 9 7 13 21 10 31 -4 10 -3 24 2 31 11 18 12 108 1 114 -4 3 -5 16 -2 29 3
12 1 26 -5 29 -6 4 -11 18 -11 31 0 14 -9 29 -20 35 -11 6 -20 19 -20 29 0 13
-26 32 -92 65 -96 48 -105 50 -150 36z m192 -160 c0 -5 -7 -10 -15 -10 -8 0
-15 5 -15 10 0 6 7 10 15 10 8 0 15 -4 15 -10z m-165 -9 c7 -12 -12 -24 -25
-16 -11 7 -4 25 10 25 5 0 11 -4 15 -9z m113 -97 c2 -30 -2 -42 -18 -52 -17
-10 -23 -9 -40 8 -38 38 -12 108 33 91 17 -6 23 -18 25 -47z"/>
<path d="M2075 3800 c-8 -12 3 -50 14 -50 16 0 31 28 25 44 -7 18 -29 21 -39
6z"/>
<path d="M2007 3630 c-22 -17 -27 -29 -27 -64 0 -77 38 -127 216 -281 96 -84
132 -129 207 -257 31 -53 61 -100 67 -103 5 -3 10 -15 10 -26 0 -17 -2 -18
-13 -7 -8 7 -19 23 -26 36 -14 26 -38 29 -44 5 -3 -10 -3 2 -1 27 2 28 -2 52
-11 63 -13 18 -14 18 -28 -5 -7 -12 -40 -67 -71 -120 -32 -54 -60 -98 -62 -98
-14 0 4 39 61 135 66 113 76 144 50 165 -11 9 -27 6 -79 -14 -35 -14 -69 -26
-75 -26 -18 0 -13 20 7 26 56 18 122 47 122 54 0 12 -153 160 -166 160 -8 0
-14 -50 -18 -152 -8 -159 -25 -238 -26 -117 0 60 -3 68 -31 95 -17 16 -42 48
-56 72 -14 23 -27 42 -29 42 -3 0 -17 -11 -32 -25 -32 -30 -47 -32 -32 -5 6
11 15 20 20 20 5 0 15 10 21 22 16 29 -6 128 -27 128 -9 0 -22 7 -30 15 -8 8
-21 11 -30 8 -9 -3 -21 3 -31 16 -9 14 -23 21 -36 19 -26 -4 -34 -42 -43 -200
-7 -109 -13 -95 96 -234 30 -38 66 -85 80 -104 108 -146 234 -301 257 -317 51
-36 115 -47 226 -38 133 10 195 10 352 0 131 -8 162 -16 202 -54 61 -57 76
-61 258 -61 175 0 329 13 378 32 34 13 34 27 1 125 -76 232 -128 354 -181 426
-46 62 -145 132 -199 141 -45 6 -164 -3 -164 -13 0 -3 24 -22 52 -41 28 -19
64 -48 80 -65 29 -31 98 -154 98 -175 0 -22 -19 1 -45 55 -33 70 -73 116 -148
168 -33 23 -85 60 -116 81 -69 48 -142 76 -198 76 -24 0 -87 7 -141 15 -87 14
-104 21 -166 63 -38 25 -116 89 -174 142 -210 192 -249 214 -305 170z m120
-44 c60 -45 68 -68 43 -121 -37 -77 -81 -74 -141 9 -37 50 -38 98 -5 131 29
29 42 26 103 -19z"/>
<path d="M2030 3585 c-20 -24 -5 -84 32 -122 17 -18 38 -33 44 -33 14 0 64 61
64 78 0 16 -91 92 -110 92 -10 0 -23 -7 -30 -15z"/>
<path d="M2470 3623 c-47 -18 -179 -107 -173 -117 11 -18 103 -100 126 -113
18 -9 26 -8 48 8 15 10 34 19 43 19 20 0 21 26 2 33 -20 8 -48 64 -43 85 2 12
8 6 19 -19 15 -35 71 -79 100 -79 8 0 33 -9 56 -20 22 -11 52 -20 65 -20 29 0
57 29 57 59 0 20 -4 22 -30 16 -60 -13 -133 37 -117 79 13 34 -105 88 -153 69z"/>
<path d="M2640 3546 c0 -17 51 -56 74 -56 28 0 18 19 -24 45 -46 29 -50 30
-50 11z"/>
<path d="M2520 3401 c-60 -30 -62 -31 -50 -47 18 -20 101 -65 111 -58 5 3 9
22 9 42 l0 38 56 -52 c54 -51 85 -64 156 -64 l26 0 -30 30 c-26 26 -30 36 -25
65 6 34 -5 55 -18 35 -10 -17 -73 -11 -117 10 -51 24 -72 25 -118 1z"/>
<path d="M2003 3378 c-29 -14 -30 -50 -3 -114 24 -54 76 -124 94 -124 6 0 12
8 13 18 0 9 3 49 5 88 5 76 2 85 -46 122 -32 25 -32 25 -63 10z"/>
<path d="M2790 3354 c0 -44 47 -82 80 -64 29 15 25 32 -15 58 -41 26 -65 28
-65 6z"/>
<path d="M2606 3296 c3 -8 14 -16 25 -19 15 -4 19 -2 15 10 -3 8 -6 17 -6 19
0 2 -9 4 -20 4 -12 0 -17 -5 -14 -14z"/>
<path d="M2870 3259 c0 -5 5 -7 10 -4 6 3 10 8 10 11 0 2 -4 4 -10 4 -5 0 -10
-5 -10 -11z"/>
<path d="M4068 4011 c-21 -9 -38 -23 -38 -31 0 -16 18 -40 31 -40 9 0 51 70
47 79 -2 4 -20 0 -40 -8z"/>
<path d="M540 3373 c0 -12 56 -63 70 -63 13 0 30 42 21 52 -10 12 -91 21 -91
11z"/>
<path d="M582 1290 c-35 -15 -48 -52 -27 -84 17 -26 19 -26 130 -26 128 0 143
3 155 35 12 33 2 61 -26 74 -29 13 -199 14 -232 1z"/>
<path d="M1464 1288 c-11 -17 -15 -59 -9 -86 5 -22 7 -23 153 -20 l147 3 3 43
c5 69 -2 72 -154 72 -93 0 -135 -4 -140 -12z"/>
<path d="M2420 320 c0 -52 15 -65 40 -35 19 23 4 85 -20 85 -17 0 -20 -7 -20
-50z"/>
<path d="M2774 356 c-11 -28 1 -81 18 -84 21 -4 33 35 24 73 -7 27 -33 34 -42
11z"/>
</g>
</svg>
